# Blender v2.79 (sub 0) OBJ File: 'Backdrop.blend'
# www.blender.org
g Backdrop
v -10.000000 8.000000 0.000001
v 10.000000 7.999999 -0.000001
v -10.000000 7.671297 0.000001
v 10.000000 7.671296 -0.000001
v -10.000000 7.203704 0.000001
v 10.000000 7.203703 -0.000001
v -10.000000 6.625001 0.000001
v 10.000000 6.625000 -0.000001
v -10.000000 5.962964 0.000001
v 10.000000 5.962963 -0.000001
v -10.000000 5.245371 0.000001
v 10.000000 5.245370 -0.000001
v -10.000000 4.500001 0.000001
v 10.000000 4.500000 -0.000001
v -10.000000 3.754631 0.000001
v 10.000000 3.754630 -0.000001
v -10.000000 3.037038 0.000001
v 10.000000 3.037037 -0.000001
v -10.000000 2.375001 0.000001
v 10.000000 2.375000 -0.000001
v -10.000000 1.796298 0.000001
v 10.000000 1.796297 -0.000001
v -10.000000 1.328705 0.000001
v 10.000000 1.328704 -0.000001
v -10.000001 1.000000 0.000001
v 10.000001 1.000000 -0.000001
v -10.000002 0.770255 -0.000578
v 10.000002 0.770254 -0.000579
v -10.000001 0.578704 -0.004629
v 10.000001 0.578703 -0.004631
v -10.000000 0.421876 -0.015624
v 10.000000 0.421875 -0.015626
v -10.000001 0.296297 -0.037036
v 10.000001 0.296296 -0.037038
v -10.000000 0.198496 -0.072337
v 10.000000 0.198495 -0.072339
v -10.000000 0.125001 -0.124999
v 10.000000 0.125000 -0.125001
v -10.000002 0.072339 -0.198494
v 10.000002 0.072338 -0.198496
v -10.000002 0.037038 -0.296296
v 10.000002 0.037037 -0.296297
v -10.000001 0.015626 -0.421874
v 10.000001 0.015625 -0.421876
v -10.000000 0.004630 -0.578703
v 10.000000 0.004629 -0.578705
v -10.000001 0.000579 -0.770254
v 10.000001 0.000578 -0.770256
v -10.000002 0.000000 -0.999999
v 10.000002 -0.000000 -1.000001
v -10.000000 0.000000 -1.328703
v 10.000000 -0.000000 -1.328704
v -10.000000 0.000000 -1.796295
v 10.000000 -0.000000 -1.796297
v -10.000000 0.000000 -2.374999
v 10.000000 -0.000000 -2.375001
v -10.000000 0.000000 -3.037036
v 10.000000 -0.000000 -3.037038
v -10.000000 0.000000 -3.754629
v 10.000000 -0.000000 -3.754631
v -10.000000 0.000000 -4.499999
v 10.000000 -0.000000 -4.500001
v -10.000000 0.000000 -5.245369
v 10.000000 -0.000000 -5.245371
v -10.000001 0.000000 -5.962962
v 9.999999 -0.000000 -5.962964
v -10.000001 0.000000 -6.624999
v 9.999999 -0.000000 -6.625001
v -10.000001 0.000000 -7.203703
v 9.999999 -0.000000 -7.203705
v -10.000001 0.000000 -7.671296
v 9.999999 -0.000000 -7.671298
v -10.000001 0.000000 -7.999999
v 9.999999 -0.000000 -8.000001
vn 0.0000 0.0000 -1.0000
vn 0.0000 0.0013 -1.0000
vn 0.0000 0.0118 -0.9999
vn 0.0000 0.0455 -0.9989
vn 0.0000 0.1191 -0.9929
vn 0.0000 0.2548 -0.9670
vn 0.0000 0.4654 -0.8851
vn 0.0000 0.7071 -0.7071
vn 0.0000 0.8851 -0.4654
vn 0.0000 0.9670 -0.2548
vn 0.0000 0.9929 -0.1191
vn 0.0000 0.9989 -0.0455
vn 0.0000 0.9999 -0.0118
vn 0.0000 1.0000 -0.0013
vn 0.0000 1.0000 0.0000
s 1
f 2//1 4//1 3//1 1//1
f 4//1 6//1 5//1 3//1
f 6//1 8//1 7//1 5//1
f 8//1 10//1 9//1 7//1
f 10//1 12//1 11//1 9//1
f 12//1 14//1 13//1 11//1
f 14//1 16//1 15//1 13//1
f 16//1 18//1 17//1 15//1
f 18//1 20//1 19//1 17//1
f 20//1 22//1 21//1 19//1
f 22//1 24//1 23//1 21//1
f 24//1 26//2 25//2 23//1
f 26//2 28//3 27//3 25//2
f 28//3 30//4 29//4 27//3
f 30//4 32//5 31//5 29//4
f 32//5 34//6 33//6 31//5
f 34//6 36//7 35//7 33//6
f 36//7 38//8 37//8 35//7
f 38//8 40//9 39//9 37//8
f 40//9 42//10 41//10 39//9
f 42//10 44//11 43//11 41//10
f 44//11 46//12 45//12 43//11
f 46//12 48//13 47//13 45//12
f 48//13 50//14 49//14 47//13
f 50//14 52//15 51//15 49//14
f 52//15 54//15 53//15 51//15
f 54//15 56//15 55//15 53//15
f 56//15 58//15 57//15 55//15
f 58//15 60//15 59//15 57//15
f 60//15 62//15 61//15 59//15
f 62//15 64//15 63//15 61//15
f 64//15 66//15 65//15 63//15
f 66//15 68//15 67//15 65//15
f 68//15 70//15 69//15 67//15
f 70//15 72//15 71//15 69//15
f 72//15 74//15 73//15 71//15
